<svg xmlns="http://www.w3.org/2000/svg" viewBox="0 0 800 600" width="800" height="600" role="img" aria-label="صحة القلب">
  <defs>
    <linearGradient id="g" x1="0" y1="0" x2="1" y2="1">
      <stop offset="0" stop-color="#f43f5e"/>
      <stop offset="1" stop-color="#ec4899"/>
    </linearGradient>
  </defs>
  <rect width="800" height="600" fill="url(#g)"/>
  <circle cx="400" cy="235" r="135" fill="rgba(255,255,255,0.16)"/>
  <circle cx="400" cy="235" r="100" fill="rgba(255,255,255,0.12)"/>
  <g transform="translate(400,235) scale(7) translate(-12,-12)" stroke="#fff" stroke-width="1.7" fill="none" stroke-linecap="round" stroke-linejoin="round">
    <path d="M19 14c1.49-1.46 3-3.21 3-5.5A5.5 5.5 0 0 0 16.5 3c-1.76 0-3 .5-4.5 2-1.5-1.5-2.74-2-4.5-2A5.5 5.5 0 0 0 2 8.5c0 2.3 1.5 4.05 3 5.5l7 7Z"/>
  </g>
  <text x="400" y="430" fill="#fff" font-size="58" font-weight="700" text-anchor="middle" direction="rtl" font-family="Cairo, 'Segoe UI', Tahoma, sans-serif">صحة القلب</text>
  <text x="400" y="482" fill="rgba(255,255,255,0.9)" font-size="30" text-anchor="middle" direction="rtl" font-family="Cairo, 'Segoe UI', Tahoma, sans-serif">نصائح للحفاظ على قلب سليم</text>
</svg>
