<svg xmlns="http://www.w3.org/2000/svg" viewBox="0 0 800 600" width="800" height="600" role="img" aria-label="شرب الماء">
  <defs>
    <linearGradient id="g" x1="0" y1="0" x2="1" y2="1">
      <stop offset="0" stop-color="#06b6d4"/>
      <stop offset="1" stop-color="#0ea5e9"/>
    </linearGradient>
  </defs>
  <rect width="800" height="600" fill="url(#g)"/>
  <circle cx="400" cy="235" r="135" fill="rgba(255,255,255,0.16)"/>
  <circle cx="400" cy="235" r="100" fill="rgba(255,255,255,0.12)"/>
  <g transform="translate(400,235) scale(7) translate(-12,-12)" stroke="#fff" stroke-width="1.7" fill="none" stroke-linecap="round" stroke-linejoin="round">
    <path d="M12 22a7 7 0 0 0 7-7c0-2-1-3.9-3-5.5s-3.5-4-4-6.5c-.5 2.5-2 4.9-4 6.5C7 11.1 6 13 6 15a7 7 0 0 0 7 7Z"/>
  </g>
  <text x="400" y="430" fill="#fff" font-size="58" font-weight="700" text-anchor="middle" direction="rtl" font-family="Cairo, 'Segoe UI', Tahoma, sans-serif">شرب الماء</text>
  <text x="400" y="482" fill="rgba(255,255,255,0.9)" font-size="30" text-anchor="middle" direction="rtl" font-family="Cairo, 'Segoe UI', Tahoma, sans-serif">رطّب جسمك يومياً</text>
</svg>
