<svg xmlns="http://www.w3.org/2000/svg" viewBox="0 0 800 600" width="800" height="600" role="img" aria-label="التغذية السليمة">
  <defs>
    <linearGradient id="g" x1="0" y1="0" x2="1" y2="1">
      <stop offset="0" stop-color="#10b981"/>
      <stop offset="1" stop-color="#14b8a6"/>
    </linearGradient>
  </defs>
  <rect width="800" height="600" fill="url(#g)"/>
  <circle cx="400" cy="235" r="135" fill="rgba(255,255,255,0.16)"/>
  <circle cx="400" cy="235" r="100" fill="rgba(255,255,255,0.12)"/>
  <g transform="translate(400,235) scale(7) translate(-12,-12)" stroke="#fff" stroke-width="1.7" fill="none" stroke-linecap="round" stroke-linejoin="round">
    <path d="M12 20.94c1.5 0 2.75 1.06 4 1.06 3 0 6-8 6-12.22A4.91 4.91 0 0 0 17 5c-2.22 0-4 1.44-5 2-1-.56-2.78-2-5-2a4.9 4.9 0 0 0-5 4.78C2 14 5 22 8 22c1.25 0 2.5-1.06 4-1.06Z"/>
    <path d="M10 2c1 .5 2 2 2 5"/>
  </g>
  <text x="400" y="430" fill="#fff" font-size="58" font-weight="700" text-anchor="middle" direction="rtl" font-family="Cairo, 'Segoe UI', Tahoma, sans-serif">التغذية السليمة</text>
  <text x="400" y="482" fill="rgba(255,255,255,0.9)" font-size="30" text-anchor="middle" direction="rtl" font-family="Cairo, 'Segoe UI', Tahoma, sans-serif">غذاء متوازن لصحة أفضل</text>
</svg>
