<svg xmlns="http://www.w3.org/2000/svg" viewBox="0 0 800 600" width="800" height="600" role="img" aria-label="اللقاحات">
  <defs>
    <linearGradient id="g" x1="0" y1="0" x2="1" y2="1">
      <stop offset="0" stop-color="#8b5cf6"/>
      <stop offset="1" stop-color="#6366f1"/>
    </linearGradient>
  </defs>
  <rect width="800" height="600" fill="url(#g)"/>
  <circle cx="400" cy="235" r="135" fill="rgba(255,255,255,0.16)"/>
  <circle cx="400" cy="235" r="100" fill="rgba(255,255,255,0.12)"/>
  <g transform="translate(400,235) scale(7) translate(-12,-12)" stroke="#fff" stroke-width="1.7" fill="none" stroke-linecap="round" stroke-linejoin="round">
    <path d="m18 2 4 4"/>
    <path d="m17 7 3-3"/>
    <path d="M19 9 8.7 19.3c-1 1-2.5 1-3.4 0l-.6-.6c-1-1-1-2.5 0-3.4L15 5"/>
    <path d="m9 11 4 4"/>
    <path d="m5 19-3 3"/>
    <path d="m14 4 6 6"/>
  </g>
  <text x="400" y="430" fill="#fff" font-size="58" font-weight="700" text-anchor="middle" direction="rtl" font-family="Cairo, 'Segoe UI', Tahoma, sans-serif">اللقاحات</text>
  <text x="400" y="482" fill="rgba(255,255,255,0.9)" font-size="30" text-anchor="middle" direction="rtl" font-family="Cairo, 'Segoe UI', Tahoma, sans-serif">حماية مبكرة من الأمراض</text>
</svg>
